<svg xmlns="http://www.w3.org/2000/svg" xmlns:xlink="http://www.w3.org/1999/xlink" width="1080" zoomAndPan="magnify" viewBox="0 0 810 809.999993" height="1080" preserveAspectRatio="xMidYMid meet" version="1.0"><defs><clipPath id="5956fd0b24"><path d="M 45 324.828125 L 765 324.828125 L 765 485.328125 L 45 485.328125 Z M 45 324.828125 " clip-rule="nonzero"/></clipPath></defs><g clip-path="url(#5956fd0b24)"><path fill="#080807" d="M 589.339844 328.972656 L 611.148438 334.839844 L 612.21875 334.867188 L 612.195312 335.121094 L 614.296875 335.6875 L 615.746094 329.574219 L 589.339844 328.972656 M 594.742188 344.4375 L 595.148438 346.664062 L 563.46875 346.1875 L 525.007812 346.816406 L 494.371094 347.269531 L 552.085938 344.667969 L 594.742188 344.4375 M 558.640625 339.847656 L 594.007812 340.40625 L 594.429688 342.714844 L 565.464844 342.695312 L 535.3125 343.449219 C 516.410156 344.039062 500.394531 344.5625 487.253906 345.011719 L 454.007812 346.023438 L 419.339844 346.570312 L 441.410156 345.035156 L 501.171875 342.910156 L 497.089844 342.539062 L 454.363281 343.9375 L 418.746094 344.722656 C 402.375 345.1875 379.382812 345.8125 349.765625 346.597656 L 317.191406 347.773438 L 351.578125 345.355469 L 386.011719 344.59375 L 418.417969 343.550781 L 455.636719 342.707031 C 479.007812 341.964844 501.75 341.273438 523.855469 340.628906 L 558.640625 339.847656 M 460.320312 351.601562 L 489.746094 352.976562 L 483.53125 352.875 L 455.472656 352.722656 L 446.035156 352.039062 L 447.746094 351.992188 L 460.320312 351.601562 M 588.519531 347.84375 L 589.828125 351.828125 L 565.597656 351.859375 L 527.964844 352.652344 L 513.515625 353.0625 L 495.890625 352.972656 L 460.824219 351.585938 L 477.324219 351.070312 C 486.191406 350.714844 501.664062 350.066406 523.742188 349.125 L 553.828125 348.167969 L 588.519531 347.84375 M 590.105469 352.679688 L 590.894531 355.085938 L 545.871094 353.945312 L 549.03125 353.824219 L 565.597656 352.996094 L 590.105469 352.679688 M 85.332031 405.175781 L 85.371094 405.597656 L 85.242188 405.589844 C 85.273438 405.453125 85.300781 405.316406 85.332031 405.175781 M 86.304688 404.425781 L 86.679688 405.679688 L 85.585938 405.613281 L 85.464844 404.539062 L 85.488281 404.433594 L 86.304688 404.425781 M 86.417969 411.144531 L 86.972656 412.21875 L 86.664062 415.472656 L 86.199219 411.234375 L 86.417969 411.144531 M 86.5625 417.878906 L 86.4375 418.214844 L 86.59375 418.234375 L 86.5625 417.878906 M 86.894531 417.570312 L 86.972656 418.273438 L 87.171875 418.296875 L 86.894531 417.570312 M 86.40625 418.210938 L 86.402344 418.273438 L 86.394531 418.335938 C 86.410156 418.296875 86.425781 418.257812 86.4375 418.214844 C 86.429688 418.214844 86.417969 418.214844 86.40625 418.210938 M 89.558594 417.226562 L 90.28125 418.632812 L 88.832031 418.476562 L 89.558594 417.226562 M 81.609375 403.582031 L 81.503906 404.480469 L 81.441406 404.480469 L 81.457031 404.902344 L 81.402344 405.351562 L 81.472656 405.355469 L 81.742188 413.125 L 80.4375 413.675781 L 79.992188 417.519531 L 81.898438 417.726562 L 82.007812 420.875 L 82 420.917969 L 82.007812 420.890625 L 82.164062 425.332031 L 82.96875 425.445312 L 82.914062 418.554688 L 83.183594 417.863281 L 86.40625 418.214844 L 86.5 417.238281 L 86.40625 416.273438 L 85.117188 412.867188 L 85.660156 411.464844 L 84.734375 411.855469 L 84.210938 410.46875 L 83.835938 412.238281 L 82.867188 412.648438 L 82.824219 406.792969 L 82.296875 405.410156 L 82.8125 405.441406 L 82.804688 404.464844 L 81.945312 404.476562 L 81.609375 403.582031 M 87.679688 424.703125 L 87.835938 426.140625 L 88.070312 426.175781 L 88.554688 424.789062 L 87.679688 424.703125 M 82.96875 425.445312 L 82.976562 426.59375 L 82.988281 427.742188 L 83.777344 425.5625 L 82.96875 425.445312 M 88.023438 427.851562 L 90.84375 428.015625 L 91.433594 429.574219 L 88.195312 429.410156 L 88.023438 427.851562 M 86.394531 418.335938 L 83.777344 425.5625 L 84.652344 425.6875 L 82.992188 428.550781 L 82.988281 427.742188 L 82.488281 429.121094 L 82.660156 429.128906 L 82.316406 429.71875 L 82.367188 431.25 L 83.015625 431.398438 L 83 429.144531 L 85.460938 429.269531 L 86.152344 425.902344 L 87.355469 426.074219 L 87.21875 424.65625 L 86.425781 424.574219 L 86.957031 421.976562 L 86.9375 421.75 L 85.902344 423.527344 L 86.394531 418.335938 M 82.523438 435.761719 L 82.726562 441.53125 L 82.9375 441.574219 L 83.089844 440.835938 L 83.050781 435.960938 L 82.523438 435.761719 M 81.773438 402.148438 L 82.800781 404.136719 L 82.804688 404.464844 L 82.96875 404.460938 L 83.496094 405.484375 L 82.8125 405.441406 L 82.824219 406.792969 L 84.210938 410.46875 L 84.75 407.914062 L 85.792969 409.929688 L 85.882812 410.890625 L 85.660156 411.464844 L 85.929688 411.351562 L 86.40625 416.273438 L 86.554688 416.664062 C 86.476562 417.023438 86.480469 417.429688 86.5625 417.878906 L 86.78125 417.269531 L 86.894531 417.570312 L 86.84375 417.097656 L 87.933594 414.082031 L 88.394531 414.972656 L 87.703125 418.351562 L 87.171875 418.296875 L 87.523438 419.226562 L 87.234375 420.640625 L 86.972656 418.273438 L 86.59375 418.234375 L 86.9375 421.75 L 87.042969 421.566406 L 86.957031 421.976562 L 87.21875 424.65625 L 87.679688 424.703125 L 87.289062 421.140625 L 87.867188 420.140625 L 89.070312 423.324219 L 88.554688 424.789062 L 89.667969 424.902344 L 90.269531 426.488281 L 88.070312 426.175781 L 87.894531 426.671875 L 87.835938 426.140625 L 87.355469 426.074219 L 87.675781 429.382812 L 85.460938 429.269531 L 84.9375 431.839844 L 83.015625 431.398438 L 83.050781 435.960938 L 84.015625 436.328125 L 83.089844 440.835938 L 83.097656 441.605469 L 82.9375 441.574219 L 82.757812 442.457031 L 82.726562 441.53125 L 78.300781 440.675781 L 80.378906 434.945312 L 82.523438 435.761719 L 82.367188 431.25 L 81.765625 431.113281 L 82.488281 429.121094 L 82.292969 429.109375 L 82.164062 425.332031 L 81.097656 425.179688 L 82 420.917969 L 78.894531 428.9375 L 78.667969 428.925781 L 79.992188 417.519531 L 73.125 416.773438 L 80.4375 413.675781 L 81.402344 405.351562 L 75.761719 405.003906 L 76.085938 404.542969 L 81.441406 404.480469 L 81.390625 403.003906 L 81.609375 403.582031 L 81.773438 402.148438 M 738.394531 432.667969 L 733.78125 442.539062 L 733.746094 442.667969 L 735.359375 445.574219 L 738.394531 432.667969 M 735.359375 445.574219 L 734.171875 450.605469 L 732.988281 455.636719 C 735.605469 455.578125 738.222656 455.519531 740.839844 455.460938 L 735.359375 445.574219 M 82.8125 444.035156 L 82.898438 446.574219 L 76.574219 446.957031 L 75.988281 451.976562 L 83.15625 453.949219 L 83.203125 455.355469 L 83.195312 453.960938 L 90.242188 455.898438 L 89.300781 446.1875 L 83.136719 446.5625 L 83.117188 444.097656 L 82.8125 444.035156 M 92.757812 445.980469 L 90.03125 446.144531 L 91.125 456.140625 L 102.679688 459.320312 L 98.027344 447.011719 L 92.757812 445.980469 M 90.242188 455.898438 L 90.671875 460.339844 L 91.605469 460.503906 L 91.125 456.140625 L 90.242188 455.898438 M 443.988281 458.699219 L 468.523438 460.476562 L 471.175781 460.558594 L 476.011719 461.195312 L 446.613281 460.535156 L 422.003906 459.644531 L 443.988281 458.699219 M 477.863281 460.769531 L 497.710938 461.394531 L 492.265625 461.421875 L 483.261719 461.296875 L 477.863281 460.769531 M 91.605469 460.503906 L 91.660156 460.996094 L 91.710938 461.484375 C 93.160156 461.421875 94.609375 461.355469 96.058594 461.292969 L 91.605469 460.503906 M 615.921875 460.863281 L 616.203125 462.421875 L 604.941406 460.96875 L 612.421875 461.109375 L 615.921875 460.863281 M 253.972656 459.304688 L 299.570312 459.421875 L 338.230469 459.628906 L 370.53125 459.953125 L 373.472656 460.003906 L 357.488281 460.507812 L 337.164062 461.039062 C 312.226562 461.457031 284.097656 461.90625 252.777344 462.378906 L 220.382812 463.515625 L 191.933594 463.769531 L 149.960938 463.855469 L 115.640625 462.886719 L 109.25 461.128906 L 144.21875 459.953125 L 202.523438 459.46875 L 253.972656 459.304688 M 515.820312 461.824219 L 544.265625 461.847656 L 559.507812 462.296875 L 580.738281 464.90625 L 535.789062 462.402344 L 515.820312 461.824219 M 520.746094 465.289062 L 557.519531 467.230469 L 559.667969 467.359375 L 534.648438 466.808594 L 520.746094 465.289062 M 599.207031 464.21875 L 621.925781 466.011719 L 633.375 467.390625 L 625.46875 467.554688 L 599.035156 465.949219 L 599.207031 464.21875 M 583.289062 466.625 L 583.144531 467.246094 L 582.996094 467.871094 C 582.769531 467.867188 582.546875 467.859375 582.320312 467.855469 L 583.289062 466.625 M 732.988281 455.636719 L 730.128906 455.699219 L 726.53125 468.660156 L 726.40625 469.824219 L 730.082031 467.988281 L 732.988281 455.636719 M 552.265625 324.800781 L 519.339844 325.574219 C 484.34375 327.304688 426.941406 329.085938 347.132812 330.914062 C 322.859375 332.160156 297.894531 333.21875 272.234375 334.097656 L 240.457031 333.867188 C 214.570312 334.6875 187.269531 334.996094 158.558594 334.792969 L 115.519531 336.234375 L 79.074219 346.273438 L 78.671875 342.597656 L 108.558594 330.933594 C 126.945312 330.058594 144.082031 329.386719 159.96875 328.917969 C 191.464844 329.125 214.171875 328.9375 228.089844 328.359375 C 202.507812 326.796875 160.878906 327.253906 103.210938 329.726562 L 59.894531 346.136719 L 61.75 351.046875 L 56.195312 352.578125 L 63.664062 367.050781 L 45.300781 368.324219 L 54.695312 438.535156 L 56.914062 438.96875 L 55.722656 448.210938 L 76.574219 446.957031 L 77.042969 442.90625 C 82.824219 444.371094 84.734375 444.414062 82.777344 443.03125 L 83.117188 444.097656 C 89.1875 444.988281 91.25 445.6875 89.300781 446.1875 C 90.054688 446.382812 90.273438 446.132812 89.953125 445.433594 C 91.246094 446.066406 93.691406 446.164062 97.289062 445.722656 C 95.640625 446.851562 98.269531 447.441406 105.175781 447.492188 L 109.660156 456.179688 L 151.253906 454.773438 C 164.585938 454.550781 202.496094 454.363281 264.984375 454.21875 L 307.183594 455.351562 L 321.644531 454.382812 C 371.53125 454.59375 402.683594 455.054688 415.09375 455.765625 L 433.339844 457.8125 L 404.648438 459.019531 C 327.113281 457.945312 246.730469 457.671875 163.503906 458.1875 L 107.945312 460.769531 L 102.679688 459.320312 L 103.304688 460.972656 L 96.058594 461.292969 L 119.773438 465.484375 C 139.566406 466.21875 157.34375 466.648438 173.109375 466.769531 L 237.144531 465.691406 L 274.835938 464.070312 L 351.214844 462.566406 L 400.386719 460.558594 C 412.625 460.980469 423.167969 461.554688 432.023438 462.277344 L 500.714844 464.449219 L 512.152344 465.953125 L 552.980469 468.355469 L 581.285156 469.179688 L 581.675781 468.679688 C 627.199219 471.875 657.722656 473.742188 673.238281 474.28125 L 700.671875 483.71875 L 724.785156 485.074219 L 727.90625 455.75 L 730.128906 455.699219 L 748.882812 388.128906 L 738.394531 432.667969 L 764.789062 376.222656 L 752.535156 374.96875 L 753.460938 371.628906 L 736.78125 372.351562 L 736.855469 371.679688 L 747.195312 367.257812 L 737.324219 367.261719 L 737.410156 366.4375 L 711.972656 363.179688 L 667.316406 359.636719 L 673.597656 351.640625 L 614.296875 335.6875 L 610.542969 351.542969 L 611.148438 334.839844 C 588.5625 333.925781 564.863281 333.667969 540.046875 334.0625 L 351.597656 336.605469 C 318.042969 337.753906 292.394531 338.488281 274.65625 338.816406 C 269.265625 339.339844 239.207031 339.105469 184.476562 338.113281 L 122.160156 339.582031 L 82.371094 349.5625 L 82.402344 353.386719 L 79.914062 353.902344 L 79.515625 349.007812 L 123.191406 337.96875 C 163.246094 336.886719 184 336.230469 185.457031 335.992188 L 199.984375 336.277344 L 285.304688 334.921875 L 372.023438 332.078125 C 450.597656 331.769531 509.699219 330.675781 549.320312 328.796875 C 571.167969 328.558594 584.507812 328.617188 589.339844 328.972656 L 582.851562 327.226562 L 496.019531 328.332031 C 500.703125 327.515625 519.449219 326.339844 552.265625 324.800781 " fill-opacity="1" fill-rule="nonzero"/></g></svg>