<svg xmlns="http://www.w3.org/2000/svg" xmlns:xlink="http://www.w3.org/1999/xlink" width="1080" zoomAndPan="magnify" viewBox="0 0 810 809.999993" height="1080" preserveAspectRatio="xMidYMid meet" version="1.0"><defs><g/><clipPath id="3f38b494d8"><path d="M 222 216 L 587 216 L 587 729 L 222 729 Z M 222 216 " clip-rule="nonzero"/></clipPath><clipPath id="2a0e22c6a3"><path d="M 601.6875 526.792969 L 656.4375 526.792969 L 656.4375 550.792969 L 601.6875 550.792969 Z M 601.6875 526.792969 " clip-rule="nonzero"/></clipPath><clipPath id="5e870be0ce"><rect x="0" width="319" y="0" height="205"/></clipPath></defs><g clip-path="url(#3f38b494d8)"><path fill="#000000" d="M 520.421875 257.796875 C 478.222656 223.039062 422.792969 209.363281 368.144531 219.789062 C 295.390625 233.96875 237.898438 292.722656 225.171875 365.996094 C 215.089844 424.105469 232.3125 481.675781 272.515625 523.910156 C 289.703125 541.984375 299.144531 564.117188 299.144531 586.183594 L 299.144531 595.929688 C 299.144531 605.304688 306.726562 612.851562 316.066406 612.851562 L 493.078125 612.851562 C 502.453125 612.851562 510 605.304688 510 595.929688 L 510 586.183594 C 510 564.085938 519.4375 541.984375 536.597656 523.980469 C 568.980469 490.035156 586.8125 445.425781 586.8125 398.519531 C 586.8125 343.894531 562.617188 292.621094 520.421875 257.796875 M 467.429688 695.601562 L 341.75 695.601562 C 332.375 695.601562 324.828125 703.148438 324.828125 712.523438 C 324.828125 721.863281 332.375 729.445312 341.75 729.445312 L 467.429688 729.445312 C 476.769531 729.445312 484.347656 721.863281 484.347656 712.523438 C 484.347656 703.148438 476.769531 695.601562 467.429688 695.601562 M 485.328125 639.285156 L 323.847656 639.285156 C 314.507812 639.285156 306.929688 646.832031 306.929688 656.207031 C 306.929688 665.546875 314.507812 673.128906 323.847656 673.128906 L 485.328125 673.128906 C 494.667969 673.128906 502.25 665.546875 502.25 656.207031 C 502.25 646.832031 494.667969 639.285156 485.328125 639.285156 " fill-opacity="1" fill-rule="evenodd"/></g><path fill="#000000" d="M 575.996094 245.246094 C 580.328125 245.246094 584.65625 243.585938 587.972656 240.304688 L 635.382812 192.855469 C 641.980469 186.253906 641.980469 175.527344 635.382812 168.925781 C 628.785156 162.328125 618.058594 162.328125 611.457031 168.925781 L 564.015625 216.34375 C 557.417969 222.976562 557.417969 233.671875 564.015625 240.304688 C 567.332031 243.585938 571.664062 245.246094 575.996094 245.246094 Z M 222.25 558.15625 L 174.910156 605.535156 C 168.3125 612.136719 168.3125 622.863281 174.910156 629.464844 C 178.226562 632.78125 182.523438 634.441406 186.855469 634.441406 C 191.1875 634.441406 195.519531 632.78125 198.835938 629.464844 L 246.175781 582.082031 C 252.808594 575.449219 252.808594 564.753906 246.175781 558.15625 C 239.578125 551.523438 228.882812 551.523438 222.25 558.15625 Z M 222.285156 240.304688 C 225.601562 243.585938 229.933594 245.246094 234.265625 245.246094 C 238.59375 245.246094 242.925781 243.585938 246.210938 240.304688 C 252.84375 233.671875 252.84375 222.976562 246.210938 216.34375 L 198.835938 168.925781 C 192.234375 162.328125 181.507812 162.328125 174.910156 168.925781 C 168.3125 175.527344 168.3125 186.253906 174.910156 192.855469 Z M 578.984375 549.164062 C 572.386719 542.53125 561.691406 542.53125 555.058594 549.164062 C 548.460938 555.765625 548.460938 566.457031 555.058594 573.09375 L 602.433594 620.441406 C 605.75 623.757812 610.050781 625.414062 614.378906 625.414062 C 618.710938 625.414062 623.042969 623.757812 626.359375 620.441406 C 632.957031 613.839844 632.957031 603.113281 626.359375 596.511719 Z M 405.128906 181.855469 C 414.503906 181.855469 422.050781 174.273438 422.050781 164.933594 L 422.050781 97.921875 C 422.050781 88.582031 414.503906 81 405.128906 81 C 395.789062 81 388.210938 88.582031 388.210938 97.921875 L 388.210938 164.933594 C 388.210938 174.273438 395.789062 181.855469 405.128906 181.855469 Z M 188.074219 399.210938 C 188.074219 389.835938 180.492188 382.289062 171.152344 382.289062 L 103.914062 382.289062 C 94.574219 382.289062 86.996094 389.835938 86.996094 399.210938 C 86.996094 408.554688 94.574219 416.132812 103.914062 416.132812 L 171.152344 416.132812 C 180.492188 416.132812 188.074219 408.554688 188.074219 399.210938 Z M 706.34375 382.289062 L 640.359375 382.289062 C 631.019531 382.289062 623.4375 389.835938 623.4375 399.210938 C 623.4375 408.554688 631.019531 416.132812 640.359375 416.132812 L 706.34375 416.132812 C 715.683594 416.132812 723.261719 408.554688 723.261719 399.210938 C 723.261719 389.835938 715.683594 382.289062 706.34375 382.289062 Z M 706.34375 382.289062 " fill-opacity="1" fill-rule="evenodd"/><g clip-path="url(#2a0e22c6a3)"><path fill="#ffffff" d="M 644.5 551.097656 L 656.640625 538.933594 L 644.5 526.792969 L 643.046875 528.25 L 652.730469 537.910156 L 601.746094 537.910156 L 601.746094 539.953125 L 652.730469 539.953125 L 643.046875 549.640625 Z M 644.5 551.097656 " fill-opacity="1" fill-rule="nonzero"/></g><g transform="matrix(1, 0, 0, 1, 246, 258)"><g clip-path="url(#5e870be0ce)"><g fill="#ffffff" fill-opacity="1"><g transform="translate(79.816813, 91.768039)"><g><path d="M 49.28125 -26.671875 C 49.28125 -22.671875 48.75 -18.976562 47.6875 -15.59375 C 46.625 -12.21875 45.085938 -9.3125 43.078125 -6.875 C 41.078125 -4.4375 38.640625 -2.535156 35.765625 -1.171875 C 32.890625 0.179688 29.644531 0.859375 26.03125 0.859375 C 22.425781 0.859375 19.21875 0.179688 16.40625 -1.171875 C 13.601562 -2.535156 11.238281 -4.441406 9.3125 -6.890625 C 7.394531 -9.335938 5.9375 -12.242188 4.9375 -15.609375 C 3.9375 -18.984375 3.4375 -22.671875 3.4375 -26.671875 L 3.4375 -35.78125 C 3.4375 -39.789062 3.9375 -43.484375 4.9375 -46.859375 C 5.9375 -50.242188 7.394531 -53.160156 9.3125 -55.609375 C 11.238281 -58.054688 13.597656 -59.96875 16.390625 -61.34375 C 19.179688 -62.71875 22.378906 -63.40625 25.984375 -63.40625 C 29.628906 -63.40625 32.890625 -62.71875 35.765625 -61.34375 C 38.640625 -59.96875 41.078125 -58.054688 43.078125 -55.609375 C 45.085938 -53.160156 46.625 -50.242188 47.6875 -46.859375 C 48.75 -43.484375 49.28125 -39.789062 49.28125 -35.78125 Z M 37.03125 -35.875 C 37.03125 -38.425781 36.820312 -40.773438 36.40625 -42.921875 C 35.988281 -45.066406 35.335938 -46.910156 34.453125 -48.453125 C 33.566406 -50.003906 32.425781 -51.21875 31.03125 -52.09375 C 29.644531 -52.96875 27.960938 -53.40625 25.984375 -53.40625 C 24.035156 -53.40625 22.40625 -52.96875 21.09375 -52.09375 C 19.78125 -51.21875 18.722656 -50.003906 17.921875 -48.453125 C 17.117188 -46.910156 16.546875 -45.066406 16.203125 -42.921875 C 15.859375 -40.773438 15.6875 -38.425781 15.6875 -35.875 L 15.6875 -26.671875 C 15.6875 -24.148438 15.859375 -21.816406 16.203125 -19.671875 C 16.546875 -17.523438 17.117188 -15.664062 17.921875 -14.09375 C 18.722656 -12.519531 19.78125 -11.285156 21.09375 -10.390625 C 22.40625 -9.503906 24.050781 -9.0625 26.03125 -9.0625 C 27.976562 -9.0625 29.644531 -9.503906 31.03125 -10.390625 C 32.425781 -11.285156 33.5625 -12.507812 34.4375 -14.0625 C 35.3125 -15.625 35.960938 -17.476562 36.390625 -19.625 C 36.816406 -21.78125 37.03125 -24.128906 37.03125 -26.671875 Z M 37.03125 -35.875 "/></g></g></g><g fill="#ffffff" fill-opacity="1"><g transform="translate(132.604986, 91.768039)"><g><path d="M 47.296875 -62.546875 L 47.34375 -21.09375 C 47.34375 -17.601562 46.863281 -14.492188 45.90625 -11.765625 C 44.945312 -9.046875 43.554688 -6.75 41.734375 -4.875 C 39.921875 -3 37.703125 -1.570312 35.078125 -0.59375 C 32.453125 0.375 29.46875 0.859375 26.125 0.859375 C 22.96875 0.859375 20.125 0.375 17.59375 -0.59375 C 15.0625 -1.570312 12.890625 -2.988281 11.078125 -4.84375 C 9.273438 -6.707031 7.878906 -9.007812 6.890625 -11.75 C 5.898438 -14.488281 5.40625 -17.601562 5.40625 -21.09375 L 5.453125 -62.546875 L 17.53125 -62.546875 L 17.578125 -21.09375 C 17.597656 -17.050781 18.332031 -14 19.78125 -11.9375 C 21.226562 -9.875 23.34375 -8.84375 26.125 -8.84375 C 29.070312 -8.84375 31.328125 -9.875 32.890625 -11.9375 C 34.453125 -14 35.242188 -17.050781 35.265625 -21.09375 L 35.3125 -62.546875 Z M 47.296875 -62.546875 "/></g></g></g><g fill="#ffffff" fill-opacity="1"><g transform="translate(185.393159, 91.768039)"><g><path d="M 26.84375 -23.375 L 17.703125 -23.375 L 17.703125 0 L 5.625 0 L 5.625 -62.546875 L 26.59375 -62.546875 C 30.0625 -62.546875 33.195312 -62.140625 36 -61.328125 C 38.8125 -60.515625 41.210938 -59.316406 43.203125 -57.734375 C 45.191406 -56.160156 46.722656 -54.195312 47.796875 -51.84375 C 48.867188 -49.5 49.40625 -46.78125 49.40625 -43.6875 C 49.40625 -41.457031 49.140625 -39.445312 48.609375 -37.65625 C 48.078125 -35.863281 47.316406 -34.257812 46.328125 -32.84375 C 45.335938 -31.425781 44.148438 -30.1875 42.765625 -29.125 C 41.378906 -28.0625 39.828125 -27.144531 38.109375 -26.375 L 51.546875 -0.5625 L 51.546875 0 L 38.625 0 Z M 17.703125 -33.171875 L 26.640625 -33.171875 C 30.046875 -33.171875 32.671875 -34.035156 34.515625 -35.765625 C 36.367188 -37.492188 37.296875 -39.863281 37.296875 -42.875 C 37.296875 -46 36.390625 -48.425781 34.578125 -50.15625 C 32.773438 -51.882812 30.113281 -52.75 26.59375 -52.75 L 17.703125 -52.75 Z M 17.703125 -33.171875 "/></g></g></g><g fill="#ffffff" fill-opacity="1"><g transform="translate(0.63363, 180.209988)"><g><path d="M 36.390625 -13.0625 L 17.609375 -13.0625 L 13.921875 0 L 1.203125 0 L 21.703125 -62.546875 L 32.65625 -62.546875 L 52.75 0 L 40.046875 0 Z M 20.578125 -23.328125 L 33.546875 -23.328125 L 27.15625 -46.359375 Z M 20.578125 -23.328125 "/></g></g></g><g fill="#ffffff" fill-opacity="1"><g transform="translate(53.421803, 180.209988)"><g><path d="M 46.875 0 L 34.84375 0 L 17.4375 -40.34375 L 17.4375 0 L 5.28125 0 L 5.28125 -62.546875 L 17.4375 -62.546875 L 34.71875 -22.375 L 34.75 -62.546875 L 46.875 -62.546875 Z M 46.875 0 "/></g></g></g><g fill="#ffffff" fill-opacity="1"><g transform="translate(106.209977, 180.209988)"><g><path d="M 38.109375 -16.328125 C 38.109375 -17.441406 37.914062 -18.484375 37.53125 -19.453125 C 37.144531 -20.429688 36.484375 -21.34375 35.546875 -22.1875 C 34.617188 -23.03125 33.398438 -23.800781 31.890625 -24.5 C 30.390625 -25.207031 28.523438 -25.863281 26.296875 -26.46875 C 23.566406 -27.207031 20.960938 -28.132812 18.484375 -29.25 C 16.015625 -30.375 13.832031 -31.722656 11.9375 -33.296875 C 10.050781 -34.867188 8.539062 -36.703125 7.40625 -38.796875 C 6.28125 -40.890625 5.71875 -43.296875 5.71875 -46.015625 C 5.71875 -48.648438 6.273438 -51.039062 7.390625 -53.1875 C 8.503906 -55.332031 10.050781 -57.164062 12.03125 -58.6875 C 14.007812 -60.207031 16.34375 -61.375 19.03125 -62.1875 C 21.71875 -63 24.640625 -63.40625 27.796875 -63.40625 C 31.054688 -63.40625 34.039062 -62.929688 36.75 -61.984375 C 39.457031 -61.046875 41.785156 -59.722656 43.734375 -58.015625 C 45.679688 -56.316406 47.195312 -54.289062 48.28125 -51.9375 C 49.375 -49.59375 49.921875 -47.015625 49.921875 -44.203125 L 38.15625 -44.203125 C 38.09375 -45.609375 37.835938 -46.894531 37.390625 -48.0625 C 36.953125 -49.238281 36.296875 -50.25 35.421875 -51.09375 C 34.546875 -51.945312 33.457031 -52.609375 32.15625 -53.078125 C 30.851562 -53.546875 29.328125 -53.78125 27.578125 -53.78125 C 25.972656 -53.78125 24.546875 -53.585938 23.296875 -53.203125 C 22.054688 -52.816406 21.003906 -52.269531 20.140625 -51.5625 C 19.285156 -50.863281 18.632812 -50.035156 18.1875 -49.078125 C 17.75 -48.117188 17.53125 -47.082031 17.53125 -45.96875 C 17.53125 -44.789062 17.820312 -43.726562 18.40625 -42.78125 C 19 -41.84375 19.851562 -40.992188 20.96875 -40.234375 C 22.082031 -39.472656 23.429688 -38.773438 25.015625 -38.140625 C 26.609375 -37.515625 28.410156 -36.929688 30.421875 -36.390625 C 33.285156 -35.554688 35.921875 -34.535156 38.328125 -33.328125 C 40.734375 -32.128906 42.800781 -30.707031 44.53125 -29.0625 C 46.257812 -27.414062 47.601562 -25.539062 48.5625 -23.4375 C 49.519531 -21.332031 50 -18.988281 50 -16.40625 C 50 -13.65625 49.445312 -11.210938 48.34375 -9.078125 C 47.25 -6.953125 45.726562 -5.148438 43.78125 -3.671875 C 41.832031 -2.191406 39.507812 -1.070312 36.8125 -0.3125 C 34.125 0.4375 31.191406 0.8125 28.015625 0.8125 C 26.035156 0.8125 24.0625 0.632812 22.09375 0.28125 C 20.132812 -0.0703125 18.257812 -0.617188 16.46875 -1.359375 C 14.6875 -2.109375 13.019531 -3.039062 11.46875 -4.15625 C 9.925781 -5.28125 8.585938 -6.585938 7.453125 -8.078125 C 6.316406 -9.566406 5.425781 -11.253906 4.78125 -13.140625 C 4.144531 -15.035156 3.828125 -17.128906 3.828125 -19.421875 L 15.6875 -19.421875 C 15.738281 -17.523438 16.066406 -15.90625 16.671875 -14.5625 C 17.273438 -13.21875 18.113281 -12.113281 19.1875 -11.25 C 20.257812 -10.394531 21.546875 -9.765625 23.046875 -9.359375 C 24.546875 -8.960938 26.203125 -8.765625 28.015625 -8.765625 C 29.617188 -8.765625 31.039062 -8.945312 32.28125 -9.3125 C 33.53125 -9.6875 34.582031 -10.203125 35.4375 -10.859375 C 36.300781 -11.523438 36.960938 -12.320312 37.421875 -13.25 C 37.878906 -14.1875 38.109375 -15.210938 38.109375 -16.328125 Z M 38.109375 -16.328125 "/></g></g></g><g fill="#ffffff" fill-opacity="1"><g transform="translate(158.99815, 180.209988)"><g><path d="M 36.21875 -24.875 L 40.765625 -62.546875 L 51.859375 -62.546875 L 43.171875 0 L 32.265625 0 L 26.328125 -36.953125 L 20.625 0 L 9.703125 0 L 1.109375 -62.546875 L 12.15625 -62.546875 L 16.625 -25.125 L 21.953125 -62.546875 L 30.59375 -62.546875 Z M 36.21875 -24.875 "/></g></g></g><g fill="#ffffff" fill-opacity="1"><g transform="translate(211.786323, 180.209988)"><g><path d="M 44.125 -27.40625 L 18.4375 -27.40625 L 18.4375 -9.75 L 48.453125 -9.75 L 48.453125 0 L 6.3125 0 L 6.3125 -62.546875 L 48.328125 -62.546875 L 48.328125 -52.71875 L 18.4375 -52.71875 L 18.4375 -36.953125 L 44.125 -36.953125 Z M 44.125 -27.40625 "/></g></g></g><g fill="#ffffff" fill-opacity="1"><g transform="translate(264.574512, 180.209988)"><g><path d="M 26.84375 -23.375 L 17.703125 -23.375 L 17.703125 0 L 5.625 0 L 5.625 -62.546875 L 26.59375 -62.546875 C 30.0625 -62.546875 33.195312 -62.140625 36 -61.328125 C 38.8125 -60.515625 41.210938 -59.316406 43.203125 -57.734375 C 45.191406 -56.160156 46.722656 -54.195312 47.796875 -51.84375 C 48.867188 -49.5 49.40625 -46.78125 49.40625 -43.6875 C 49.40625 -41.457031 49.140625 -39.445312 48.609375 -37.65625 C 48.078125 -35.863281 47.316406 -34.257812 46.328125 -32.84375 C 45.335938 -31.425781 44.148438 -30.1875 42.765625 -29.125 C 41.378906 -28.0625 39.828125 -27.144531 38.109375 -26.375 L 51.546875 -0.5625 L 51.546875 0 L 38.625 0 Z M 17.703125 -33.171875 L 26.640625 -33.171875 C 30.046875 -33.171875 32.671875 -34.035156 34.515625 -35.765625 C 36.367188 -37.492188 37.296875 -39.863281 37.296875 -42.875 C 37.296875 -46 36.390625 -48.425781 34.578125 -50.15625 C 32.773438 -51.882812 30.113281 -52.75 26.59375 -52.75 L 17.703125 -52.75 Z M 17.703125 -33.171875 "/></g></g></g></g></g></svg>