<svg xmlns="http://www.w3.org/2000/svg" xmlns:xlink="http://www.w3.org/1999/xlink" width="1080" zoomAndPan="magnify" viewBox="0 0 810 809.999993" height="1080" preserveAspectRatio="xMidYMid meet" version="1.0"><defs><g/><clipPath id="0bfaf0ced1"><path d="M 101.6875 83 L 745 83 L 745 729 L 101.6875 729 Z M 101.6875 83 " clip-rule="nonzero"/></clipPath><clipPath id="47eb379963"><rect x="0" width="144" y="0" height="106"/></clipPath><clipPath id="21082246da"><rect x="0" width="431" y="0" height="106"/></clipPath></defs><g clip-path="url(#0bfaf0ced1)"><path fill="#000000" d="M 674.832031 404.75 C 655.1875 403.507812 637.039062 409.972656 623.113281 421.15625 C 613.414062 429.113281 598.992188 421.902344 598.992188 409.472656 L 598.992188 246.65625 C 598.992188 238.453125 592.28125 231.738281 584.074219 231.738281 L 416.980469 231.738281 C 404.050781 231.738281 397.585938 216.824219 406.039062 206.882812 C 417.726562 193.457031 424.441406 175.808594 423.941406 156.667969 C 423.195312 118.386719 392.363281 86.320312 354.070312 83.835938 C 310.804688 81.101562 274.75 115.402344 274.75 158.160156 C 274.75 176.804688 281.464844 193.707031 292.65625 206.632812 C 301.109375 216.328125 294.394531 231.492188 281.464844 231.492188 L 116.609375 231.492188 C 108.402344 231.492188 101.6875 238.203125 101.6875 246.40625 L 101.6875 409.472656 C 101.6875 421.902344 116.359375 429.113281 126.058594 421.15625 C 139.980469 409.722656 158.382812 403.261719 178.027344 404.503906 C 215.324219 406.738281 245.660156 437.316406 247.648438 474.601562 C 250.136719 517.855469 216.316406 553.652344 173.550781 553.652344 C 155.648438 553.652344 138.988281 547.4375 126.304688 536.746094 C 116.609375 528.792969 101.9375 535.753906 101.9375 548.183594 L 101.9375 713.738281 C 101.9375 721.941406 108.652344 728.652344 116.855469 728.652344 L 281.464844 728.652344 C 294.144531 728.652344 301.109375 713.738281 292.65625 704.042969 C 280.96875 690.371094 274.253906 672.96875 275 653.582031 C 276.242188 616.042969 305.585938 584.722656 342.882812 581.492188 C 387.140625 577.761719 423.941406 612.8125 423.941406 656.316406 C 423.941406 674.957031 417.230469 691.363281 406.039062 704.539062 C 397.835938 713.984375 405.046875 728.898438 417.476562 728.898438 L 584.074219 728.898438 C 592.28125 728.898438 598.992188 722.1875 598.992188 713.984375 L 598.992188 548.929688 C 598.992188 536.5 613.414062 529.289062 623.113281 537.246094 C 636.042969 547.683594 652.207031 553.898438 670.109375 553.898438 C 712.875 553.898438 747.4375 517.855469 744.457031 474.355469 C 741.96875 437.066406 711.882812 407.238281 674.832031 404.75 Z M 674.832031 404.75 " fill-opacity="1" fill-rule="nonzero"/></g><g transform="matrix(1, 0, 0, 1, 265, 344)"><g clip-path="url(#47eb379963)"><g fill="#ffffff" fill-opacity="1"><g transform="translate(0.279678, 83.689904)"><g><path d="M 46.609375 -47.625 L 29.1875 -47.625 L 29.1875 0 L 18.234375 0 L 18.234375 -47.625 L 1.046875 -47.625 L 1.046875 -56.515625 L 46.609375 -56.515625 Z M 46.609375 -47.625 "/></g></g></g><g fill="#ffffff" fill-opacity="1"><g transform="translate(47.972408, 83.689904)"><g><path d="M 42.375 0 L 31.59375 0 L 31.59375 -24.484375 L 15.609375 -24.484375 L 15.609375 0 L 4.78125 0 L 4.78125 -56.515625 L 15.609375 -56.515625 L 15.609375 -33.34375 L 31.59375 -33.34375 L 31.59375 -56.515625 L 42.375 -56.515625 Z M 42.375 0 "/></g></g></g><g fill="#ffffff" fill-opacity="1"><g transform="translate(95.665139, 83.689904)"><g><path d="M 39.859375 -24.765625 L 16.65625 -24.765625 L 16.65625 -8.8125 L 43.78125 -8.8125 L 43.78125 0 L 5.703125 0 L 5.703125 -56.515625 L 43.65625 -56.515625 L 43.65625 -47.625 L 16.65625 -47.625 L 16.65625 -33.375 L 39.859375 -33.375 Z M 39.859375 -24.765625 "/></g></g></g></g></g><g transform="matrix(1, 0, 0, 1, 265, 423)"><g clip-path="url(#21082246da)"><g fill="#ffffff" fill-opacity="1"><g transform="translate(0.279678, 83.647)"><g><path d="M 44.328125 -17.703125 C 44.140625 -14.847656 43.519531 -12.28125 42.46875 -10 C 41.425781 -7.726562 40.023438 -5.789062 38.265625 -4.1875 C 36.503906 -2.582031 34.40625 -1.347656 31.96875 -0.484375 C 29.539062 0.378906 26.851562 0.8125 23.90625 0.8125 C 20.570312 0.8125 17.609375 0.195312 15.015625 -1.03125 C 12.429688 -2.257812 10.257812 -3.976562 8.5 -6.1875 C 6.738281 -8.40625 5.390625 -11.066406 4.453125 -14.171875 C 3.523438 -17.273438 3.0625 -20.6875 3.0625 -24.40625 L 3.0625 -32.015625 C 3.0625 -35.765625 3.550781 -39.191406 4.53125 -42.296875 C 5.519531 -45.410156 6.921875 -48.078125 8.734375 -50.296875 C 10.546875 -52.523438 12.738281 -54.253906 15.3125 -55.484375 C 17.882812 -56.710938 20.773438 -57.328125 23.984375 -57.328125 C 27.085938 -57.328125 29.847656 -56.882812 32.265625 -56 C 34.691406 -55.125 36.753906 -53.867188 38.453125 -52.234375 C 40.160156 -50.609375 41.503906 -48.617188 42.484375 -46.265625 C 43.472656 -43.910156 44.097656 -41.257812 44.359375 -38.3125 L 33.5 -38.3125 C 33.394531 -39.988281 33.140625 -41.457031 32.734375 -42.71875 C 32.335938 -43.988281 31.753906 -45.046875 30.984375 -45.890625 C 30.222656 -46.734375 29.265625 -47.367188 28.109375 -47.796875 C 26.960938 -48.222656 25.585938 -48.4375 23.984375 -48.4375 C 22.304688 -48.4375 20.84375 -48.070312 19.59375 -47.34375 C 18.351562 -46.625 17.328125 -45.566406 16.515625 -44.171875 C 15.703125 -42.773438 15.097656 -41.0625 14.703125 -39.03125 C 14.316406 -37 14.125 -34.6875 14.125 -32.09375 L 14.125 -24.40625 C 14.125 -18.84375 14.90625 -14.726562 16.46875 -12.0625 C 18.039062 -9.40625 20.519531 -8.078125 23.90625 -8.078125 C 26.75 -8.078125 29 -8.832031 30.65625 -10.34375 C 32.3125 -11.851562 33.234375 -14.304688 33.421875 -17.703125 Z M 44.328125 -17.703125 "/></g></g></g><g fill="#ffffff" fill-opacity="1"><g transform="translate(47.972408, 83.647)"><g><path d="M 42.375 0 L 31.59375 0 L 31.59375 -24.484375 L 15.609375 -24.484375 L 15.609375 0 L 4.78125 0 L 4.78125 -56.515625 L 15.609375 -56.515625 L 15.609375 -33.34375 L 31.59375 -33.34375 L 31.59375 -56.515625 L 42.375 -56.515625 Z M 42.375 0 "/></g></g></g><g fill="#ffffff" fill-opacity="1"><g transform="translate(95.665139, 83.647)"><g><path d="M 32.875 -11.796875 L 15.90625 -11.796875 L 12.578125 0 L 1.09375 0 L 19.59375 -56.515625 L 29.5 -56.515625 L 47.65625 0 L 36.171875 0 Z M 18.59375 -21.078125 L 30.3125 -21.078125 L 24.53125 -41.875 Z M 18.59375 -21.078125 "/></g></g></g><g fill="#ffffff" fill-opacity="1"><g transform="translate(143.357869, 83.647)"><g><path d="M 16.765625 -8.8125 L 43.234375 -8.8125 L 43.234375 0 L 5.828125 0 L 5.828125 -56.515625 L 16.765625 -56.515625 Z M 16.765625 -8.8125 "/></g></g></g><g fill="#ffffff" fill-opacity="1"><g transform="translate(191.0506, 83.647)"><g><path d="M 16.765625 -8.8125 L 43.234375 -8.8125 L 43.234375 0 L 5.828125 0 L 5.828125 -56.515625 L 16.765625 -56.515625 Z M 16.765625 -8.8125 "/></g></g></g><g fill="#ffffff" fill-opacity="1"><g transform="translate(238.743331, 83.647)"><g><path d="M 39.859375 -24.765625 L 16.65625 -24.765625 L 16.65625 -8.8125 L 43.78125 -8.8125 L 43.78125 0 L 5.703125 0 L 5.703125 -56.515625 L 43.65625 -56.515625 L 43.65625 -47.625 L 16.65625 -47.625 L 16.65625 -33.375 L 39.859375 -33.375 Z M 39.859375 -24.765625 "/></g></g></g><g fill="#ffffff" fill-opacity="1"><g transform="translate(286.436061, 83.647)"><g><path d="M 42.34375 0 L 31.46875 0 L 15.75 -36.4375 L 15.75 0 L 4.78125 0 L 4.78125 -56.515625 L 15.75 -56.515625 L 31.359375 -20.21875 L 31.390625 -56.515625 L 42.34375 -56.515625 Z M 42.34375 0 "/></g></g></g><g fill="#ffffff" fill-opacity="1"><g transform="translate(334.128792, 83.647)"><g><path d="M 43.9375 -6.59375 C 43.238281 -5.738281 42.28125 -4.867188 41.0625 -3.984375 C 39.84375 -3.109375 38.398438 -2.316406 36.734375 -1.609375 C 35.066406 -0.898438 33.195312 -0.328125 31.125 0.109375 C 29.050781 0.554688 26.828125 0.78125 24.453125 0.78125 C 21.242188 0.78125 18.34375 0.210938 15.75 -0.921875 C 13.164062 -2.066406 10.953125 -3.710938 9.109375 -5.859375 C 7.273438 -8.003906 5.859375 -10.632812 4.859375 -13.75 C 3.867188 -16.875 3.375 -20.414062 3.375 -24.375 L 3.375 -32.0625 C 3.375 -36.019531 3.894531 -39.554688 4.9375 -42.671875 C 5.988281 -45.785156 7.4375 -48.429688 9.28125 -50.609375 C 11.132812 -52.785156 13.3125 -54.441406 15.8125 -55.578125 C 18.3125 -56.710938 21.023438 -57.28125 23.953125 -57.28125 C 27.128906 -57.28125 29.898438 -56.878906 32.265625 -56.078125 C 34.640625 -55.273438 36.640625 -54.117188 38.265625 -52.609375 C 39.898438 -51.097656 41.175781 -49.253906 42.09375 -47.078125 C 43.007812 -44.898438 43.609375 -42.457031 43.890625 -39.75 L 33.265625 -39.75 C 32.898438 -42.644531 32.023438 -44.820312 30.640625 -46.28125 C 29.253906 -47.738281 27.113281 -48.46875 24.21875 -48.46875 C 22.820312 -48.46875 21.523438 -48.113281 20.328125 -47.40625 C 19.140625 -46.695312 18.101562 -45.65625 17.21875 -44.28125 C 16.34375 -42.90625 15.644531 -41.203125 15.125 -39.171875 C 14.613281 -37.140625 14.359375 -34.796875 14.359375 -32.140625 L 14.359375 -24.375 C 14.390625 -19.09375 15.269531 -15.046875 17 -12.234375 C 18.726562 -9.429688 21.378906 -8.019531 24.953125 -8 C 25.804688 -8 26.644531 -8.0625 27.46875 -8.1875 C 28.300781 -8.320312 29.078125 -8.503906 29.796875 -8.734375 C 30.523438 -8.960938 31.164062 -9.222656 31.71875 -9.515625 C 32.28125 -9.816406 32.703125 -10.140625 32.984375 -10.484375 L 33.03125 -20.71875 L 23.671875 -20.71875 L 23.671875 -28.875 L 43.890625 -28.875 Z M 43.9375 -6.59375 "/></g></g></g><g fill="#ffffff" fill-opacity="1"><g transform="translate(381.821522, 83.647)"><g><path d="M 39.859375 -24.765625 L 16.65625 -24.765625 L 16.65625 -8.8125 L 43.78125 -8.8125 L 43.78125 0 L 5.703125 0 L 5.703125 -56.515625 L 43.65625 -56.515625 L 43.65625 -47.625 L 16.65625 -47.625 L 16.65625 -33.375 L 39.859375 -33.375 Z M 39.859375 -24.765625 "/></g></g></g></g></g></svg>